# xmcd CD database file
#
# Track frame offsets:
#	150
#	18423
#	31014
#	42055
#	53713
#	64834
#	76385
#	87062
#	96894
#	108447
#	121134
#	132081
#	142986
#	157138
#	166600
#	179923
#	190946
#	202132
#	213604
#	224824
#	236449
#	249524
#	261174
#	269272
#	280577
#
# Disc length: 3881 seconds
#
# Revision: 1
# Processed by: cddbd v1.5.2PL0 Copyright (c) Steve Scherf et al.
# Submitted via: CDex 1.51
#
DISCID=680f2719
DTITLE=Brook Benton - This Is ... Brook Benton
DYEAR=2006
DGENRE=R&B
TTITLE0=Rainy Night In Georgia
TTITLE1=The Boll Weevil Song
TTITLE2=It's Just A Matter Of Time
TTITLE3=Hotel Happiness
TTITLE4=So Many Ways
TTITLE5=My True Confession
TTITLE6=Thank You Pretty Baby
TTITLE7=Lie To Me
TTITLE8=Kiddeo
TTITLE9=Think Twice
TTITLE10=Revenge
TTITLE11=Frankie And Johnny
TTITLE12=For My Baby
TTITLE13=So Close
TTITLE14=I Got What I Wanted
TTITLE15=The Ties That Bind
TTITLE16=It's Just A House Without You
TTITLE17=A Door That Is Open
TTITLE18=Devoted
TTITLE19=Next Stop Paradise
TTITLE20=A Lover's Question
TTITLE21=Only Your Love
TTITLE22=I Wanna Do Everything For You
TTITLE23=Crazy In Love With You
TTITLE24=If Only I Had Known
EXTD=YEAR: 2006
EXTT0=
EXTT1=
EXTT2=
EXTT3=
EXTT4=
EXTT5=
EXTT6=
EXTT7=
EXTT8=
EXTT9=
EXTT10=
EXTT11=
EXTT12=
EXTT13=
EXTT14=
EXTT15=
EXTT16=
EXTT17=
EXTT18=
EXTT19=
EXTT20=
EXTT21=
EXTT22=
EXTT23=
EXTT24=
PLAYORDER=
